<svg xmlns="http://www.w3.org/2000/svg" width="181" height="40" fill="none"><path fill="#24CCA7" d="m4.694 9.524 20.264-5.672-1.073-2.224C23.183.183 21.471-.414 20.061.305L1.92 9.524h2.774ZM31.017 3.81a2.55 2.55 0 0 0-.733.109l-4.629 1.384-14.136 4.22H34.557l-.865-3.473c-.333-1.354-1.454-2.24-2.675-2.24Z"/><path fill="#4A56E2" d="M35.45 10.716H2.25a2.249 2.249 0 0 0-2.17 1.645 2.29 2.29 0 0 0-.08.583v24.828A2.238 2.238 0 0 0 2.246 40h33.2c1.239 0 2.245-.998 2.245-2.228v-6.217H24.364c-2.107 0-3.818-1.698-3.818-3.788V22.81c0-1.025.413-1.956 1.082-2.638a3.791 3.791 0 0 1 2.731-1.145h13.332v-6.084a2.231 2.231 0 0 0-2.241-2.228Z"/><path fill="#4A56E2" d="M39.268 21.158a2.248 2.248 0 0 0-1.514-.584h-13.39c-1.24 0-2.246.998-2.246 2.228v4.961a2.238 2.238 0 0 0 2.246 2.228h13.39c.256 0 .499-.045.728-.12.296-.099.561-.26.786-.464.449-.406.732-.994.732-1.645v-4.96c0-.65-.283-1.239-.732-1.644Zm-10.215 4.568c0 .615-.503 1.114-1.123 1.114h-.745c-.62 0-1.123-.5-1.123-1.114v-.74c0-.357.166-.673.431-.873a1.14 1.14 0 0 1 .692-.241H27.93c.62 0 1.123.499 1.123 1.114v.74Z"/><path fill="#000" d="M90.84 9.94 85.35 31h-6.21l-3.36-13.86L72.3 31h-6.21L60.75 9.94h5.49l3.03 15.33 3.75-15.33h5.64l3.6 15.33 3.06-15.33h5.52Zm1.553 12.66c0-1.72.32-3.23.96-4.53.66-1.3 1.55-2.3 2.67-3 1.12-.7 2.37-1.05 3.75-1.05 1.18 0 2.21.24 3.09.72.9.48 1.59 1.11 2.07 1.89v-2.37h5.13V31h-5.13v-2.37c-.5.78-1.2 1.41-2.1 1.89-.88.48-1.91.72-3.09.72-1.36 0-2.6-.35-3.72-1.05-1.12-.72-2.01-1.73-2.67-3.03-.64-1.32-.96-2.84-.96-4.56Zm12.54.03c0-1.28-.36-2.29-1.08-3.03-.7-.74-1.56-1.11-2.58-1.11s-1.89.37-2.61 1.11c-.7.72-1.05 1.72-1.05 3s.35 2.3 1.05 3.06c.72.74 1.59 1.11 2.61 1.11 1.02 0 1.88-.37 2.58-1.11.72-.74 1.08-1.75 1.08-3.03ZM118.904 8.8V31h-5.13V8.8h5.13Zm8.848 0V31h-5.13V8.8h5.13Zm19.497 13.56c0 .48-.03.98-.09 1.5h-11.61c.08 1.04.41 1.84.99 2.4.6.54 1.33.81 2.19.81 1.28 0 2.17-.54 2.67-1.62h5.46c-.28 1.1-.79 2.09-1.53 2.97-.72.88-1.63 1.57-2.73 2.07-1.1.5-2.33.75-3.69.75-1.64 0-3.1-.35-4.38-1.05-1.28-.7-2.28-1.7-3-3-.72-1.3-1.08-2.82-1.08-4.56 0-1.74.35-3.26 1.05-4.56.72-1.3 1.72-2.3 3-3 1.28-.7 2.75-1.05 4.41-1.05 1.62 0 3.06.34 4.32 1.02 1.26.68 2.24 1.65 2.94 2.91.72 1.26 1.08 2.73 1.08 4.41Zm-5.25-1.35c0-.88-.3-1.58-.9-2.1-.6-.52-1.35-.78-2.25-.78-.86 0-1.59.25-2.19.75-.58.5-.94 1.21-1.08 2.13h6.42Zm17.287 5.64V31h-2.61c-1.86 0-3.31-.45-4.35-1.35-1.04-.92-1.56-2.41-1.56-4.47v-6.66h-2.04v-4.26h2.04v-4.08h5.13v4.08h3.36v4.26h-3.36v6.72c0 .5.12.86.36 1.08.24.22.64.33 1.2.33h1.83Z"/></svg>