<svg xmlns="http://www.w3.org/2000/svg" width="120" height="30" fill="none"><path fill="#24CCA7" d="M3.52 7.143 18.72 2.889l-.805-1.668C17.387.137 16.103-.31 15.045.23L1.44 7.143h2.08ZM23.262 2.857c-.183 0-.366.027-.549.082l-3.472 1.039L8.64 7.143h17.279l-.65-2.605c-.249-1.016-1.09-1.68-2.006-1.68Z"/><path fill="#4A56E2" d="M26.587 8.037H1.688A1.686 1.686 0 0 0 .06 9.27C.024 9.41 0 9.558 0 9.708V28.33C0 29.25.755 30 1.684 30h24.9c.93 0 1.684-.749 1.684-1.671v-4.663h-9.995c-1.58 0-2.864-1.273-2.864-2.84V17.107c0-.768.31-1.467.812-1.978a2.844 2.844 0 0 1 2.049-.86h9.998V9.709a1.674 1.674 0 0 0-1.68-1.67Z"/><path fill="#4A56E2" d="M29.45 15.868a1.683 1.683 0 0 0-1.134-.438H18.273c-.93 0-1.685.75-1.685 1.672v3.72c0 .922.755 1.67 1.685 1.67H28.316c.192 0 .373-.033.545-.09.223-.073.421-.193.59-.347A1.66 1.66 0 0 0 30 20.822v-3.72c0-.488-.212-.93-.55-1.234Zm-7.66 3.426a.84.84 0 0 1-.842.836h-.56a.84.84 0 0 1-.842-.836v-.555c0-.267.125-.504.324-.655a.855.855 0 0 1 .518-.18H20.948a.84.84 0 0 1 .842.835v.555Z"/><path fill="#000" d="M68.13 7.455 64.013 23.25h-4.658l-2.52-10.395-2.61 10.395h-4.657L45.563 7.455h4.117l2.273 11.498 2.812-11.498h4.23l2.7 11.498L63.99 7.455h4.14ZM69.295 16.95c0-1.29.24-2.422.72-3.397.495-.975 1.162-1.725 2.002-2.25.84-.525 1.778-.788 2.813-.788.885 0 1.657.18 2.317.54.675.36 1.193.833 1.553 1.418v-1.778h3.847V23.25H78.7v-1.777c-.375.585-.9 1.057-1.576 1.417-.66.36-1.432.54-2.317.54-1.02 0-1.95-.262-2.79-.787-.84-.54-1.507-1.298-2.002-2.273-.48-.99-.72-2.13-.72-3.42Zm9.405.023c0-.96-.27-1.718-.81-2.273a2.56 2.56 0 0 0-1.935-.832c-.765 0-1.418.277-1.958.832-.525.54-.787 1.29-.787 2.25s.262 1.725.787 2.295c.54.555 1.193.833 1.958.833a2.56 2.56 0 0 0 1.934-.833c.54-.555.81-1.312.81-2.272ZM89.178 6.6v16.65h-3.847V6.6h3.847ZM95.814 6.6v16.65h-3.848V6.6h3.848ZM110.437 16.77c0 .36-.022.735-.067 1.125h-8.708c.06.78.308 1.38.743 1.8.45.405.997.608 1.642.608.96 0 1.628-.405 2.003-1.215h4.095a5.548 5.548 0 0 1-1.148 2.227 5.584 5.584 0 0 1-2.047 1.553c-.825.375-1.748.562-2.768.562-1.23 0-2.325-.262-3.285-.787a5.601 5.601 0 0 1-2.25-2.25c-.54-.975-.81-2.115-.81-3.42 0-1.305.263-2.445.787-3.42a5.6 5.6 0 0 1 2.251-2.25c.96-.525 2.062-.788 3.307-.788 1.215 0 2.295.255 3.24.765a5.42 5.42 0 0 1 2.205 2.183c.54.945.81 2.047.81 3.307Zm-3.937-1.012c0-.66-.225-1.185-.675-1.575-.45-.39-1.013-.585-1.688-.585-.645 0-1.192.187-1.642.562-.435.375-.705.908-.81 1.598h4.815ZM119.464 19.988v3.262h-1.957c-1.395 0-2.483-.337-3.263-1.012-.78-.69-1.17-1.808-1.17-3.353V13.89h-1.53v-3.195h1.53v-3.06h3.848v3.06h2.52v3.195h-2.52v5.04c0 .375.09.645.27.81.18.165.48.248.9.248h1.372Z"/></svg>